<mxfile host="app.diagrams.net" modified="2023-03-28T23:38:48.995Z" agent="5.0 (Windows NT 10.0; Win64; x64) AppleWebKit/537.36 (KHTML, like Gecko) Chrome/108.0.0.0 YaBrowser/23.1.5.708 Yowser/2.5 Safari/537.36" etag="U96ZHOdtCCUUdNL91mrP" version="21.0.6" type="github">
  <diagram name="Страница 1" id="zGFfo1a8DsFZgkOKXBhz">
    <mxGraphModel dx="1002" dy="585" grid="1" gridSize="10" guides="1" tooltips="1" connect="1" arrows="1" fold="1" page="1" pageScale="1" pageWidth="827" pageHeight="1169" math="0" shadow="0">
      <root>
        <mxCell id="0" />
        <mxCell id="1" parent="0" />
        <mxCell id="pqpR9Fi3QfhfB2NVkVW0-12" style="edgeStyle=orthogonalEdgeStyle;rounded=0;orthogonalLoop=1;jettySize=auto;html=1;entryX=0.5;entryY=0;entryDx=0;entryDy=0;endArrow=open;endFill=0;" edge="1" parent="1" source="pqpR9Fi3QfhfB2NVkVW0-5" target="pqpR9Fi3QfhfB2NVkVW0-11">
          <mxGeometry relative="1" as="geometry" />
        </mxCell>
        <mxCell id="pqpR9Fi3QfhfB2NVkVW0-5" value="" style="shape=waypoint;sketch=0;fillStyle=solid;size=6;pointerEvents=1;points=[];fillColor=none;resizable=0;rotatable=0;perimeter=centerPerimeter;snapToPoint=1;strokeWidth=6;" vertex="1" parent="1">
          <mxGeometry x="400" y="70" width="20" height="20" as="geometry" />
        </mxCell>
        <mxCell id="pqpR9Fi3QfhfB2NVkVW0-9" value="" style="ellipse;whiteSpace=wrap;html=1;" vertex="1" parent="1">
          <mxGeometry x="250" y="940" width="30" height="30" as="geometry" />
        </mxCell>
        <mxCell id="pqpR9Fi3QfhfB2NVkVW0-7" value="" style="shape=waypoint;sketch=0;fillStyle=solid;size=6;pointerEvents=1;points=[];fillColor=none;resizable=0;rotatable=0;perimeter=centerPerimeter;snapToPoint=1;strokeWidth=6;" vertex="1" parent="1">
          <mxGeometry x="255" y="945" width="20" height="20" as="geometry" />
        </mxCell>
        <mxCell id="pqpR9Fi3QfhfB2NVkVW0-10" value="Автоматическая консультация в чате" style="text;html=1;strokeColor=none;fillColor=none;align=center;verticalAlign=middle;whiteSpace=wrap;rounded=0;" vertex="1" parent="1">
          <mxGeometry x="384" y="25" width="60" height="30" as="geometry" />
        </mxCell>
        <mxCell id="pqpR9Fi3QfhfB2NVkVW0-17" style="edgeStyle=orthogonalEdgeStyle;rounded=0;orthogonalLoop=1;jettySize=auto;html=1;entryX=0.5;entryY=0;entryDx=0;entryDy=0;endArrow=open;endFill=0;" edge="1" parent="1" source="pqpR9Fi3QfhfB2NVkVW0-11" target="pqpR9Fi3QfhfB2NVkVW0-13">
          <mxGeometry relative="1" as="geometry" />
        </mxCell>
        <mxCell id="pqpR9Fi3QfhfB2NVkVW0-11" value="Ожидание вопроса" style="rounded=1;whiteSpace=wrap;html=1;" vertex="1" parent="1">
          <mxGeometry x="360" y="140" width="100" height="40" as="geometry" />
        </mxCell>
        <mxCell id="pqpR9Fi3QfhfB2NVkVW0-24" style="edgeStyle=orthogonalEdgeStyle;rounded=0;orthogonalLoop=1;jettySize=auto;html=1;entryX=0.5;entryY=0;entryDx=0;entryDy=0;endArrow=open;endFill=0;" edge="1" parent="1" source="pqpR9Fi3QfhfB2NVkVW0-13" target="pqpR9Fi3QfhfB2NVkVW0-22">
          <mxGeometry relative="1" as="geometry" />
        </mxCell>
        <mxCell id="pqpR9Fi3QfhfB2NVkVW0-13" value="Начало диалога" style="swimlane;fontStyle=0;childLayout=stackLayout;horizontal=1;startSize=30;horizontalStack=0;resizeParent=1;resizeParentMax=0;resizeLast=0;collapsible=1;marginBottom=0;whiteSpace=wrap;html=1;rounded=1;" vertex="1" parent="1">
          <mxGeometry x="340" y="240" width="140" height="160" as="geometry" />
        </mxCell>
        <mxCell id="pqpR9Fi3QfhfB2NVkVW0-14" value="entry / поприветствовать клиента" style="text;strokeColor=none;fillColor=none;align=left;verticalAlign=middle;spacingLeft=4;spacingRight=4;overflow=hidden;points=[[0,0.5],[1,0.5]];portConstraint=eastwest;rotatable=0;whiteSpace=wrap;html=1;" vertex="1" parent="pqpR9Fi3QfhfB2NVkVW0-13">
          <mxGeometry y="30" width="140" height="50" as="geometry" />
        </mxCell>
        <mxCell id="pqpR9Fi3QfhfB2NVkVW0-15" value="exit / анализ типа вопроса&lt;br&gt;&lt;br&gt;do / анимация оператора" style="text;strokeColor=none;fillColor=none;align=left;verticalAlign=middle;spacingLeft=4;spacingRight=4;overflow=hidden;points=[[0,0.5],[1,0.5]];portConstraint=eastwest;rotatable=0;whiteSpace=wrap;html=1;rounded=1;" vertex="1" parent="pqpR9Fi3QfhfB2NVkVW0-13">
          <mxGeometry y="80" width="140" height="80" as="geometry" />
        </mxCell>
        <mxCell id="pqpR9Fi3QfhfB2NVkVW0-18" value="В чат поступил вопрос" style="text;html=1;strokeColor=none;fillColor=none;align=center;verticalAlign=middle;whiteSpace=wrap;rounded=0;" vertex="1" parent="1">
          <mxGeometry x="400" y="210" width="130" height="10" as="geometry" />
        </mxCell>
        <mxCell id="pqpR9Fi3QfhfB2NVkVW0-21" value="Проверить статус заказа в базе" style="rounded=1;whiteSpace=wrap;html=1;" vertex="1" parent="1">
          <mxGeometry x="170" y="400" width="110" height="40" as="geometry" />
        </mxCell>
        <mxCell id="pqpR9Fi3QfhfB2NVkVW0-22" value="Направить вопрос складу" style="rounded=1;whiteSpace=wrap;html=1;" vertex="1" parent="1">
          <mxGeometry x="360" y="480" width="100" height="40" as="geometry" />
        </mxCell>
        <mxCell id="pqpR9Fi3QfhfB2NVkVW0-27" value="" style="endArrow=none;html=1;rounded=0;exitX=0.5;exitY=0;exitDx=0;exitDy=0;endFill=0;startArrow=open;startFill=0;" edge="1" parent="1" source="pqpR9Fi3QfhfB2NVkVW0-21">
          <mxGeometry width="50" height="50" relative="1" as="geometry">
            <mxPoint x="390" y="340" as="sourcePoint" />
            <mxPoint x="340" y="340" as="targetPoint" />
          </mxGeometry>
        </mxCell>
        <mxCell id="pqpR9Fi3QfhfB2NVkVW0-28" value="" style="endArrow=none;html=1;rounded=0;exitX=0.5;exitY=0;exitDx=0;exitDy=0;endFill=0;startArrow=open;startFill=0;" edge="1" parent="1">
          <mxGeometry width="50" height="50" relative="1" as="geometry">
            <mxPoint x="590" y="400" as="sourcePoint" />
            <mxPoint x="480" y="340" as="targetPoint" />
          </mxGeometry>
        </mxCell>
        <mxCell id="pqpR9Fi3QfhfB2NVkVW0-29" value="Информация о заказе" style="text;html=1;align=center;verticalAlign=middle;resizable=0;points=[];autosize=1;strokeColor=none;fillColor=none;" vertex="1" parent="1">
          <mxGeometry x="160" y="340" width="150" height="30" as="geometry" />
        </mxCell>
        <mxCell id="pqpR9Fi3QfhfB2NVkVW0-32" value="Информация о наличии цвета/размера" style="text;html=1;strokeColor=none;fillColor=none;align=center;verticalAlign=middle;whiteSpace=wrap;rounded=0;" vertex="1" parent="1">
          <mxGeometry x="414" y="430" width="80" height="20" as="geometry" />
        </mxCell>
        <mxCell id="pqpR9Fi3QfhfB2NVkVW0-33" value="Другое" style="text;html=1;strokeColor=none;fillColor=none;align=center;verticalAlign=middle;whiteSpace=wrap;rounded=0;" vertex="1" parent="1">
          <mxGeometry x="520" y="340" width="60" height="30" as="geometry" />
        </mxCell>
        <mxCell id="pqpR9Fi3QfhfB2NVkVW0-34" style="edgeStyle=orthogonalEdgeStyle;rounded=0;orthogonalLoop=1;jettySize=auto;html=1;exitX=0.5;exitY=1;exitDx=0;exitDy=0;" edge="1" parent="1" source="pqpR9Fi3QfhfB2NVkVW0-32" target="pqpR9Fi3QfhfB2NVkVW0-32">
          <mxGeometry relative="1" as="geometry" />
        </mxCell>
        <mxCell id="pqpR9Fi3QfhfB2NVkVW0-35" value="Переключить на оператора" style="swimlane;fontStyle=0;childLayout=stackLayout;horizontal=1;startSize=30;horizontalStack=0;resizeParent=1;resizeParentMax=0;resizeLast=0;collapsible=1;marginBottom=0;whiteSpace=wrap;html=1;rounded=1;" vertex="1" parent="1">
          <mxGeometry x="550" y="400" width="140" height="200" as="geometry" />
        </mxCell>
        <mxCell id="pqpR9Fi3QfhfB2NVkVW0-36" value="entry / вывести сообщение &quot;Ожидайте, идет переключение на оператора&quot;" style="text;strokeColor=none;fillColor=none;align=left;verticalAlign=middle;spacingLeft=4;spacingRight=4;overflow=hidden;points=[[0,0.5],[1,0.5]];portConstraint=eastwest;rotatable=0;whiteSpace=wrap;html=1;" vertex="1" parent="pqpR9Fi3QfhfB2NVkVW0-35">
          <mxGeometry y="30" width="140" height="80" as="geometry" />
        </mxCell>
        <mxCell id="pqpR9Fi3QfhfB2NVkVW0-37" value="exit / Подключение оператора, отключение от чата&lt;br&gt;&lt;br&gt;do / анимация оператора" style="text;strokeColor=none;fillColor=none;align=left;verticalAlign=middle;spacingLeft=4;spacingRight=4;overflow=hidden;points=[[0,0.5],[1,0.5]];portConstraint=eastwest;rotatable=0;whiteSpace=wrap;html=1;rounded=1;" vertex="1" parent="pqpR9Fi3QfhfB2NVkVW0-35">
          <mxGeometry y="110" width="140" height="90" as="geometry" />
        </mxCell>
        <mxCell id="pqpR9Fi3QfhfB2NVkVW0-39" value="Передать ответ клиенту" style="swimlane;fontStyle=0;childLayout=stackLayout;horizontal=1;startSize=30;horizontalStack=0;resizeParent=1;resizeParentMax=0;resizeLast=0;collapsible=1;marginBottom=0;whiteSpace=wrap;html=1;rounded=1;" vertex="1" parent="1">
          <mxGeometry x="190" y="585" width="140" height="200" as="geometry" />
        </mxCell>
        <mxCell id="pqpR9Fi3QfhfB2NVkVW0-40" value="entry / вывести сообщение с полученной информацией" style="text;strokeColor=none;fillColor=none;align=left;verticalAlign=middle;spacingLeft=4;spacingRight=4;overflow=hidden;points=[[0,0.5],[1,0.5]];portConstraint=eastwest;rotatable=0;whiteSpace=wrap;html=1;" vertex="1" parent="pqpR9Fi3QfhfB2NVkVW0-39">
          <mxGeometry y="30" width="140" height="70" as="geometry" />
        </mxCell>
        <mxCell id="pqpR9Fi3QfhfB2NVkVW0-41" value="exit / вывести сообщение &quot;вы получили желаемый ответ?&quot;" style="text;strokeColor=none;fillColor=none;align=left;verticalAlign=middle;spacingLeft=4;spacingRight=4;overflow=hidden;points=[[0,0.5],[1,0.5]];portConstraint=eastwest;rotatable=0;whiteSpace=wrap;html=1;" vertex="1" parent="pqpR9Fi3QfhfB2NVkVW0-39">
          <mxGeometry y="100" width="140" height="60" as="geometry" />
        </mxCell>
        <mxCell id="pqpR9Fi3QfhfB2NVkVW0-42" value="do / анимация оператора" style="text;strokeColor=none;fillColor=none;align=left;verticalAlign=middle;spacingLeft=4;spacingRight=4;overflow=hidden;points=[[0,0.5],[1,0.5]];portConstraint=eastwest;rotatable=0;whiteSpace=wrap;html=1;" vertex="1" parent="pqpR9Fi3QfhfB2NVkVW0-39">
          <mxGeometry y="160" width="140" height="40" as="geometry" />
        </mxCell>
        <mxCell id="pqpR9Fi3QfhfB2NVkVW0-43" value="" style="endArrow=none;html=1;rounded=0;exitX=0.25;exitY=0;exitDx=0;exitDy=0;endFill=0;startArrow=open;startFill=0;entryX=0.5;entryY=1;entryDx=0;entryDy=0;" edge="1" parent="1" source="pqpR9Fi3QfhfB2NVkVW0-39" target="pqpR9Fi3QfhfB2NVkVW0-21">
          <mxGeometry width="50" height="50" relative="1" as="geometry">
            <mxPoint x="55" y="530" as="sourcePoint" />
            <mxPoint x="170" y="470" as="targetPoint" />
          </mxGeometry>
        </mxCell>
        <mxCell id="pqpR9Fi3QfhfB2NVkVW0-44" value="" style="endArrow=none;html=1;rounded=0;exitX=1;exitY=0.5;exitDx=0;exitDy=0;endFill=0;startArrow=open;startFill=0;entryX=0.5;entryY=1;entryDx=0;entryDy=0;" edge="1" parent="1" source="pqpR9Fi3QfhfB2NVkVW0-40" target="pqpR9Fi3QfhfB2NVkVW0-22">
          <mxGeometry width="50" height="50" relative="1" as="geometry">
            <mxPoint x="245" y="420" as="sourcePoint" />
            <mxPoint x="360" y="360" as="targetPoint" />
          </mxGeometry>
        </mxCell>
        <mxCell id="pqpR9Fi3QfhfB2NVkVW0-45" value="Статус получен" style="text;html=1;strokeColor=none;fillColor=none;align=center;verticalAlign=middle;whiteSpace=wrap;rounded=0;" vertex="1" parent="1">
          <mxGeometry x="220" y="500" width="60" height="30" as="geometry" />
        </mxCell>
        <mxCell id="pqpR9Fi3QfhfB2NVkVW0-46" value="Ответ от склада получен" style="text;html=1;strokeColor=none;fillColor=none;align=center;verticalAlign=middle;whiteSpace=wrap;rounded=0;" vertex="1" parent="1">
          <mxGeometry x="384" y="570" width="60" height="30" as="geometry" />
        </mxCell>
        <mxCell id="pqpR9Fi3QfhfB2NVkVW0-49" value="Да" style="text;html=1;strokeColor=none;fillColor=none;align=center;verticalAlign=middle;whiteSpace=wrap;rounded=0;" vertex="1" parent="1">
          <mxGeometry x="255" y="800" width="60" height="30" as="geometry" />
        </mxCell>
        <mxCell id="pqpR9Fi3QfhfB2NVkVW0-50" value="Нет" style="text;html=1;strokeColor=none;fillColor=none;align=center;verticalAlign=middle;whiteSpace=wrap;rounded=0;" vertex="1" parent="1">
          <mxGeometry x="400" y="680" width="60" height="30" as="geometry" />
        </mxCell>
        <mxCell id="pqpR9Fi3QfhfB2NVkVW0-51" value="Отключение чата" style="rounded=1;whiteSpace=wrap;html=1;" vertex="1" parent="1">
          <mxGeometry x="215" y="840" width="100" height="40" as="geometry" />
        </mxCell>
        <mxCell id="pqpR9Fi3QfhfB2NVkVW0-52" value="" style="endArrow=none;html=1;rounded=0;exitX=0.5;exitY=0;exitDx=0;exitDy=0;endFill=0;startArrow=open;startFill=0;entryX=0.537;entryY=1;entryDx=0;entryDy=0;entryPerimeter=0;" edge="1" parent="1" source="pqpR9Fi3QfhfB2NVkVW0-51" target="pqpR9Fi3QfhfB2NVkVW0-42">
          <mxGeometry width="50" height="50" relative="1" as="geometry">
            <mxPoint x="235" y="595" as="sourcePoint" />
            <mxPoint x="235" y="450" as="targetPoint" />
          </mxGeometry>
        </mxCell>
        <mxCell id="pqpR9Fi3QfhfB2NVkVW0-53" value="" style="endArrow=none;html=1;rounded=0;exitX=0.5;exitY=0;exitDx=0;exitDy=0;endFill=0;startArrow=open;startFill=0;entryX=0.5;entryY=1;entryDx=0;entryDy=0;" edge="1" parent="1" source="pqpR9Fi3QfhfB2NVkVW0-9" target="pqpR9Fi3QfhfB2NVkVW0-51">
          <mxGeometry width="50" height="50" relative="1" as="geometry">
            <mxPoint x="275" y="850" as="sourcePoint" />
            <mxPoint x="275" y="795" as="targetPoint" />
          </mxGeometry>
        </mxCell>
        <mxCell id="pqpR9Fi3QfhfB2NVkVW0-54" value="" style="endArrow=none;html=1;rounded=0;exitX=0;exitY=0.5;exitDx=0;exitDy=0;endFill=0;startArrow=open;startFill=0;entryX=1;entryY=0.5;entryDx=0;entryDy=0;" edge="1" parent="1" source="pqpR9Fi3QfhfB2NVkVW0-37" target="pqpR9Fi3QfhfB2NVkVW0-42">
          <mxGeometry width="50" height="50" relative="1" as="geometry">
            <mxPoint x="340" y="660" as="sourcePoint" />
            <mxPoint x="420" y="530" as="targetPoint" />
          </mxGeometry>
        </mxCell>
        <mxCell id="pqpR9Fi3QfhfB2NVkVW0-56" value="" style="endArrow=none;html=1;rounded=0;exitX=1;exitY=0.25;exitDx=0;exitDy=0;endFill=0;startArrow=open;startFill=0;" edge="1" parent="1" source="pqpR9Fi3QfhfB2NVkVW0-51" target="pqpR9Fi3QfhfB2NVkVW0-37">
          <mxGeometry width="50" height="50" relative="1" as="geometry">
            <mxPoint x="560" y="745" as="sourcePoint" />
            <mxPoint x="740" y="615" as="targetPoint" />
          </mxGeometry>
        </mxCell>
        <mxCell id="pqpR9Fi3QfhfB2NVkVW0-57" value="Решение вопроса с оператором" style="text;html=1;strokeColor=none;fillColor=none;align=center;verticalAlign=middle;whiteSpace=wrap;rounded=0;" vertex="1" parent="1">
          <mxGeometry x="470" y="710" width="60" height="30" as="geometry" />
        </mxCell>
      </root>
    </mxGraphModel>
  </diagram>
</mxfile>
